<svg width="30" height="31" viewBox="0 0 30 31" fill="none" xmlns="http://www.w3.org/2000/svg">
<path d="M15.2024 7.56604C14.6605 7.56604 14.2128 8.01373 14.2128 8.55567V13.3507L9.77126 8.90911V4.89169C9.77126 4.51469 9.46495 4.19659 9.07617 4.19659C8.69916 4.19659 8.38107 4.50291 8.38107 4.89169V7.86057L6.11906 5.59857C5.84809 5.3276 5.41219 5.3276 5.14122 5.59857C4.87025 5.86954 4.87025 6.30545 5.14122 6.57641L7.40322 8.83842H4.44612C4.06912 8.83842 3.75102 9.14474 3.75102 9.53352C3.75102 9.91052 4.05734 10.2286 4.44612 10.2286H8.45176L12.8933 14.6702H6.30756L3.73924 12.1018C3.46827 11.8309 3.03237 11.8309 2.7614 12.1018C2.49043 12.3728 2.49043 12.8087 2.7614 13.0797L4.6464 14.9647H1.67752C1.30052 14.9647 0.982422 15.271 0.982422 15.6598C0.982422 16.0368 1.28874 16.3549 1.67752 16.3549H4.6464L2.7614 18.2399C2.49043 18.5109 2.49043 18.9468 2.7614 19.2177C3.03237 19.4887 3.46827 19.4887 3.73924 19.2177L6.30756 16.6494H12.8933L8.45176 21.091H4.44612C4.06912 21.091 3.75102 21.3973 3.75102 21.7861C3.75102 22.1631 4.05734 22.4812 4.44612 22.4812H7.415L5.153 24.7432C4.88203 25.0141 4.88203 25.45 5.153 25.721C5.42397 25.992 5.85987 25.992 6.13084 25.721L8.39285 23.459V26.4279C8.39285 26.8049 8.69917 27.123 9.08795 27.123C9.46495 27.123 9.78304 26.8167 9.78304 26.4279V22.4222L14.2246 17.9807V22.7757C14.2246 23.3176 14.6723 23.7653 15.2142 23.7653C19.6793 23.7653 23.308 20.1367 23.308 15.6716C23.308 11.2065 19.6793 7.58961 15.2142 7.57782L15.2024 7.56604ZM16.1921 21.7036V9.61599C19.1492 10.099 21.3287 12.6556 21.3287 15.6598C21.3287 18.664 19.1492 21.2206 16.1921 21.7036Z" fill="#004AAD"/>
<path d="M25.3699 14.7761H29.1164C29.6112 14.7761 30 15.1767 30 15.6597C30 16.1545 29.5994 16.5433 29.1164 16.5433H25.3699C24.8751 16.5433 24.4863 16.1428 24.4863 15.6597C24.4863 15.1649 24.8869 14.7761 25.3699 14.7761Z" fill="#004AAD"/>
<path d="M15.2025 0.850708C15.6973 0.850708 16.086 1.25127 16.086 1.7343V5.49254C16.086 5.98735 15.6855 6.37613 15.2025 6.37613C14.7076 6.37613 14.3189 5.97557 14.3189 5.49254V1.7343C14.3071 1.25127 14.7076 0.850708 15.2025 0.850708Z" fill="#004AAD"/>
<path d="M15.2022 24.9435C15.697 24.9435 16.0858 25.344 16.0858 25.8271V29.5735C16.0858 30.0683 15.6852 30.4571 15.2022 30.4571C14.7074 30.4571 14.3186 30.0566 14.3186 29.5735V25.8271C14.3186 25.3323 14.7192 24.9435 15.2022 24.9435Z" fill="#004AAD"/>
<path d="M23.1316 8.97975L25.641 6.47033C25.9827 6.12867 25.9827 5.56317 25.641 5.20973C25.2993 4.86808 24.7338 4.86808 24.3804 5.20973L21.871 7.71915C21.5293 8.06081 21.5293 8.62631 21.871 8.97975C22.2126 9.3214 22.7781 9.3214 23.1316 8.97975Z" fill="#004AAD"/>
<path d="M23.1316 22.3398C22.7899 21.9981 22.2244 21.9981 21.871 22.3398C21.5293 22.6815 21.5293 23.247 21.871 23.6004L24.3804 26.1098C24.7221 26.4515 25.2876 26.4515 25.641 26.1098C25.9827 25.7682 25.9827 25.2027 25.641 24.8492L23.1316 22.3398Z" fill="#004AAD"/>
</svg>
