<svg width="22" height="26" viewBox="0 0 22 26" fill="none" xmlns="http://www.w3.org/2000/svg">
<path d="M17.7601 0.427979H4.32947C2.46802 0.427979 0.948242 1.94776 0.948242 3.80921V16.3092C0.948242 17.2045 1.30168 18.0646 1.93787 18.7008L7.34547 24.1084C7.98166 24.7446 8.8417 25.098 9.73707 25.098H17.7601C19.6216 25.098 21.1414 23.5782 21.1414 21.7168V3.80921C21.1414 1.94776 19.6334 0.427979 17.7719 0.427979H17.7601ZM18.9029 21.7168C18.9029 22.3412 18.3963 22.8478 17.7601 22.8596H9.73707C9.43076 22.8596 9.14802 22.7417 8.93595 22.5297L3.52833 17.1221C3.31627 16.91 3.19845 16.6155 3.19845 16.3209V3.80921C3.19845 3.1848 3.70505 2.6782 4.34124 2.66642H17.7719C18.3963 2.66642 18.9029 3.17302 18.9147 3.80921V21.7168H18.9029Z" fill="#004AAD"/>
<path d="M16.5115 4.64557H14.544C14.3202 4.64557 14.1435 4.82229 14.1435 5.04613V7.01361C14.1435 7.23745 14.3202 7.41417 14.544 7.41417H14.6501V11.8793H11.905V7.41417H12.0111C12.2349 7.41417 12.4116 7.23745 12.4116 7.01361V5.05791C12.4116 4.83407 12.2349 4.65735 12.0111 4.65735H10.0436C9.81975 4.65735 9.64302 4.83407 9.64302 5.05791V7.02539C9.64302 7.24923 9.81975 7.42595 10.0436 7.42595H10.1496V11.8911H7.40458V7.42595H7.51061C7.73446 7.42595 7.91117 7.24923 7.91117 7.02539V5.05791C7.91117 4.83407 7.73446 4.65735 7.51061 4.65735H5.54314C5.31929 4.65735 5.14258 4.83407 5.14258 5.05791V7.02539C5.14258 7.24923 5.31929 7.42595 5.54314 7.42595H5.64916V13.3166C5.64916 13.4933 5.79055 13.6347 5.96726 13.6347H10.1378V18.0998H10.0318C9.80796 18.0998 9.63125 18.2765 9.63125 18.5004V20.4678C9.63125 20.6917 9.80796 20.8684 10.0318 20.8684H11.9993C12.2231 20.8684 12.3999 20.6917 12.3999 20.4678V18.5004C12.3999 18.2765 12.2231 18.0998 11.9993 18.0998H11.8933V13.6347H14.6383V18.0998H14.5323C14.3084 18.0998 14.1317 18.2765 14.1317 18.5004V20.4678C14.1317 20.6917 14.3084 20.8684 14.5323 20.8684H16.4997C16.7236 20.8684 16.9003 20.6917 16.9003 20.4678V18.5004C16.9003 18.2765 16.7236 18.0998 16.4997 18.0998H16.3937V7.41417H16.4997C16.7236 7.41417 16.9003 7.23745 16.9003 7.01361V5.05791C16.9003 4.83407 16.7236 4.64557 16.4997 4.64557H16.5115Z" fill="#004AAD"/>
</svg>
