<svg width="11" height="13" viewBox="0 0 11 13" fill="none" xmlns="http://www.w3.org/2000/svg">
<path d="M8.29391 8.91553C7.89098 8.91553 7.51565 9.03269 7.19917 9.23411L4.00513 7.00416C4.05641 6.82515 4.08444 6.63634 4.08444 6.4409C4.08444 6.24543 4.05641 6.05662 4.00513 5.87764L7.11295 3.70787C7.4464 3.94472 7.8537 4.08447 8.29388 4.08447C9.42176 4.08447 10.3361 3.17012 10.3361 2.04225C10.3361 0.914374 9.42179 0 8.29391 0C7.16604 0 6.25169 0.914346 6.25169 2.04222C6.25169 2.19118 6.26808 2.33625 6.29835 2.47614L3.11162 4.70101C2.80055 4.50943 2.43438 4.39868 2.04222 4.39868C0.914346 4.39868 0 5.31303 0 6.4409C0 7.56877 0.914318 8.48312 2.04222 8.48312C2.43435 8.48312 2.80055 8.37237 3.11162 8.18078L6.32295 10.4228C6.27678 10.5934 6.25169 10.7726 6.25169 10.9578C6.25169 12.0857 7.16604 13 8.29391 13C9.42179 13 10.3361 12.0857 10.3361 10.9578C10.3361 9.82991 9.42179 8.91553 8.29391 8.91553Z" fill="#004AAD"/>
</svg>
