<svg width="38" height="38" viewBox="0 0 38 38" fill="none" xmlns="http://www.w3.org/2000/svg">
<path fill-rule="evenodd" clip-rule="evenodd" d="M19 38C8.50659 38 0 29.4934 0 19C0 8.50659 8.50659 0 19 0C29.4934 0 38 8.50659 38 19C38 29.4934 29.4934 38 19 38ZM19 1.22664C9.18404 1.22664 1.22664 9.18404 1.22664 19C1.22664 28.816 9.18404 36.7734 19 36.7734C28.816 36.7734 36.7734 28.816 36.7734 19C36.7734 9.18404 28.816 1.22664 19 1.22664Z" fill="#FFF500"/>
<path fill-rule="evenodd" clip-rule="evenodd" d="M25.914 18.3495C26.2733 18.7088 26.2733 19.2913 25.914 19.6505L20.0593 25.5053C19.7 25.8645 19.1175 25.8645 18.7583 25.5053C18.399 25.146 18.399 24.5635 18.7583 24.2042L23.0425 19.92L10.3535 19.92C9.84545 19.92 9.43356 19.5081 9.43356 19C9.43356 18.4919 9.84545 18.08 10.3535 18.08L23.0425 18.08L18.7583 13.7958C18.399 13.4366 18.399 12.8541 18.7583 12.4948C19.1175 12.1355 19.7 12.1355 20.0593 12.4948L25.914 18.3495Z" fill="#FFF500"/>
</svg>
